<mxfile host="app.diagrams.net" modified="2023-05-19T04:18:23.090Z" agent="Mozilla/5.0 (Windows NT 10.0; Win64; x64) AppleWebKit/537.36 (KHTML, like Gecko) Chrome/113.0.0.0 Safari/537.36" etag="nugIu6rKL8CTNg9KAcAY" version="21.3.2" type="github">
  <diagram id="C5RBs43oDa-KdzZeNtuy" name="Page-1">
    <mxGraphModel dx="600" dy="327" grid="1" gridSize="10" guides="1" tooltips="1" connect="1" arrows="1" fold="1" page="1" pageScale="1" pageWidth="827" pageHeight="1169" math="0" shadow="0">
      <root>
        <mxCell id="WIyWlLk6GJQsqaUBKTNV-0" />
        <mxCell id="WIyWlLk6GJQsqaUBKTNV-1" parent="WIyWlLk6GJQsqaUBKTNV-0" />
        <mxCell id="UrnmZ6yVBA1Yq4H3zK-J-6" value="" style="edgeStyle=orthogonalEdgeStyle;rounded=0;orthogonalLoop=1;jettySize=auto;exitX=0.5;exitY=1;exitDx=0;exitDy=0;entryX=0.5;entryY=0;entryDx=0;entryDy=0;fontFamily=宋体;fontSize=13;" parent="WIyWlLk6GJQsqaUBKTNV-1" source="WIyWlLk6GJQsqaUBKTNV-3" target="UrnmZ6yVBA1Yq4H3zK-J-0" edge="1">
          <mxGeometry relative="1" as="geometry" />
        </mxCell>
        <mxCell id="WIyWlLk6GJQsqaUBKTNV-3" value="开始" style="rounded=1;fontSize=13;glass=0;strokeWidth=1;shadow=0;fontFamily=宋体;" parent="WIyWlLk6GJQsqaUBKTNV-1" vertex="1">
          <mxGeometry x="372.52" y="30" width="85" height="30" as="geometry" />
        </mxCell>
        <mxCell id="UrnmZ6yVBA1Yq4H3zK-J-3" value="" style="edgeStyle=orthogonalEdgeStyle;rounded=0;orthogonalLoop=1;jettySize=auto;fontFamily=宋体;fontSize=13;" parent="WIyWlLk6GJQsqaUBKTNV-1" source="UrnmZ6yVBA1Yq4H3zK-J-0" target="UrnmZ6yVBA1Yq4H3zK-J-2" edge="1">
          <mxGeometry relative="1" as="geometry" />
        </mxCell>
        <mxCell id="UrnmZ6yVBA1Yq4H3zK-J-0" value="用户上传图像" style="rounded=0;fontFamily=宋体;fontSize=13;" parent="WIyWlLk6GJQsqaUBKTNV-1" vertex="1">
          <mxGeometry x="357.52" y="90" width="116" height="40" as="geometry" />
        </mxCell>
        <mxCell id="UrnmZ6yVBA1Yq4H3zK-J-10" value="" style="edgeStyle=orthogonalEdgeStyle;rounded=0;orthogonalLoop=1;jettySize=auto;exitX=0.5;exitY=1;exitDx=0;exitDy=0;entryX=0.5;entryY=0;entryDx=0;entryDy=0;fontFamily=宋体;fontSize=13;" parent="WIyWlLk6GJQsqaUBKTNV-1" source="UrnmZ6yVBA1Yq4H3zK-J-1" target="UrnmZ6yVBA1Yq4H3zK-J-7" edge="1">
          <mxGeometry relative="1" as="geometry" />
        </mxCell>
        <mxCell id="UrnmZ6yVBA1Yq4H3zK-J-1" value="保存图像文件" style="rounded=0;fontFamily=宋体;fontSize=13;" parent="WIyWlLk6GJQsqaUBKTNV-1" vertex="1">
          <mxGeometry x="357.52" y="230" width="116" height="40" as="geometry" />
        </mxCell>
        <mxCell id="UrnmZ6yVBA1Yq4H3zK-J-4" value="" style="edgeStyle=orthogonalEdgeStyle;rounded=0;orthogonalLoop=1;jettySize=auto;fontFamily=宋体;fontSize=13;" parent="WIyWlLk6GJQsqaUBKTNV-1" source="UrnmZ6yVBA1Yq4H3zK-J-2" target="UrnmZ6yVBA1Yq4H3zK-J-1" edge="1">
          <mxGeometry relative="1" as="geometry" />
        </mxCell>
        <mxCell id="UrnmZ6yVBA1Yq4H3zK-J-15" value="" style="edgeStyle=orthogonalEdgeStyle;rounded=0;orthogonalLoop=1;jettySize=auto;exitX=0;exitY=0.5;exitDx=0;exitDy=0;entryX=0;entryY=0.5;entryDx=0;entryDy=0;fontSize=13;fontFamily=宋体;" parent="WIyWlLk6GJQsqaUBKTNV-1" source="UrnmZ6yVBA1Yq4H3zK-J-2" target="UrnmZ6yVBA1Yq4H3zK-J-13" edge="1">
          <mxGeometry relative="1" as="geometry">
            <Array as="points">
              <mxPoint x="330" y="185" />
              <mxPoint x="330" y="420" />
            </Array>
          </mxGeometry>
        </mxCell>
        <mxCell id="UrnmZ6yVBA1Yq4H3zK-J-2" value="图像是否存在?" style="rhombus;fontFamily=宋体;fontSize=13;" parent="WIyWlLk6GJQsqaUBKTNV-1" vertex="1">
          <mxGeometry x="361.02" y="160" width="109" height="50" as="geometry" />
        </mxCell>
        <mxCell id="UrnmZ6yVBA1Yq4H3zK-J-11" value="" style="edgeStyle=orthogonalEdgeStyle;rounded=0;orthogonalLoop=1;jettySize=auto;exitX=0.5;exitY=1;exitDx=0;exitDy=0;entryX=0.5;entryY=0;entryDx=0;entryDy=0;fontFamily=宋体;fontSize=13;" parent="WIyWlLk6GJQsqaUBKTNV-1" source="UrnmZ6yVBA1Yq4H3zK-J-7" target="UrnmZ6yVBA1Yq4H3zK-J-8" edge="1">
          <mxGeometry relative="1" as="geometry" />
        </mxCell>
        <mxCell id="UrnmZ6yVBA1Yq4H3zK-J-7" value="生成图像索引" style="rounded=0;fontFamily=宋体;fontSize=13;" parent="WIyWlLk6GJQsqaUBKTNV-1" vertex="1">
          <mxGeometry x="358.52" y="290" width="114" height="30" as="geometry" />
        </mxCell>
        <mxCell id="UrnmZ6yVBA1Yq4H3zK-J-36" value="" style="edgeStyle=orthogonalEdgeStyle;rounded=0;orthogonalLoop=1;jettySize=auto;exitX=0.5;exitY=1;exitDx=0;exitDy=0;entryX=0.5;entryY=0;entryDx=0;entryDy=0;fontSize=13;fontFamily=宋体;" parent="WIyWlLk6GJQsqaUBKTNV-1" source="UrnmZ6yVBA1Yq4H3zK-J-8" target="UrnmZ6yVBA1Yq4H3zK-J-13" edge="1">
          <mxGeometry relative="1" as="geometry" />
        </mxCell>
        <mxCell id="UrnmZ6yVBA1Yq4H3zK-J-8" value="发送“缩略图生成”&#xa;消息给Python端" style="rounded=0;fontFamily=宋体;fontSize=13;" parent="WIyWlLk6GJQsqaUBKTNV-1" vertex="1">
          <mxGeometry x="353.52" y="340" width="126.48" height="40" as="geometry" />
        </mxCell>
        <mxCell id="UrnmZ6yVBA1Yq4H3zK-J-12" value="结束" style="rounded=1;fontFamily=宋体;fontSize=13;" parent="WIyWlLk6GJQsqaUBKTNV-1" vertex="1">
          <mxGeometry x="375.02" y="460" width="80" height="40" as="geometry" />
        </mxCell>
        <mxCell id="UrnmZ6yVBA1Yq4H3zK-J-16" value="" style="edgeStyle=orthogonalEdgeStyle;rounded=0;orthogonalLoop=1;jettySize=auto;exitX=0.5;exitY=1;exitDx=0;exitDy=0;entryX=0.5;entryY=0;entryDx=0;entryDy=0;fontSize=13;fontFamily=宋体;" parent="WIyWlLk6GJQsqaUBKTNV-1" source="UrnmZ6yVBA1Yq4H3zK-J-13" target="UrnmZ6yVBA1Yq4H3zK-J-12" edge="1">
          <mxGeometry relative="1" as="geometry" />
        </mxCell>
        <mxCell id="UrnmZ6yVBA1Yq4H3zK-J-13" value="绑定原图与用户关系" style="rounded=0;fontFamily=宋体;fontSize=13;" parent="WIyWlLk6GJQsqaUBKTNV-1" vertex="1">
          <mxGeometry x="353.02" y="400" width="124" height="40" as="geometry" />
        </mxCell>
        <mxCell id="UrnmZ6yVBA1Yq4H3zK-J-34" value="是" style="text;strokeColor=none;fillColor=none;align=center;verticalAlign=middle;rounded=0;fontSize=13;fontFamily=宋体;" parent="WIyWlLk6GJQsqaUBKTNV-1" vertex="1">
          <mxGeometry x="318.52" y="270" width="40" height="20" as="geometry" />
        </mxCell>
        <mxCell id="UrnmZ6yVBA1Yq4H3zK-J-35" value="否" style="text;strokeColor=none;fillColor=none;align=center;verticalAlign=middle;rounded=0;fontSize=13;fontFamily=宋体;" parent="WIyWlLk6GJQsqaUBKTNV-1" vertex="1">
          <mxGeometry x="414" y="210" width="40" height="20" as="geometry" />
        </mxCell>
      </root>
    </mxGraphModel>
  </diagram>
</mxfile>
